<svg xmlns="http://www.w3.org/2000/svg"><symbol viewBox="0 0 270 270" id="i--express"><title>Slice 1</title><path d="M135 .3C60.6.3.3 60.6.3 135c0 74.4 60.3 134.7 134.7 134.7 74.4 0 134.7-60.3 134.7-134.7C269.7 60.6 209.4.3 135 .3zM49.8 168.4c-3.9-3.9-3.9-10.3 0-14.1l94.8-94.8c3.9-3.9 10.3-3.9 14.1 0l4.2 4.2L54 172.6l-4.2-4.2zm169.7-33.9l-94.8 94.8c-3.9 3.9-10.3 3.9-14.1 0l-43.8-43.8 108.9-109 43.8 43.8c3.9 3.9 3.9 10.3 0 14.2z" fill-rule="evenodd"/></symbol><symbol viewBox="0 0 270 270" id="i--family"><title>Slice 1</title><path d="M135 .3C60.6.3.3 60.6.3 135c0 74.4 60.3 134.7 134.7 134.7 74.4 0 134.7-60.3 134.7-134.7C269.7 60.6 209.4.3 135 .3zm88.3 185c9.4 1.5 18.4 4.3 26.7 8.2-21.3 41.8-64.8 70.5-115 70.5s-93.7-28.6-115-70.5c8.3-3.9 17.3-6.7 26.7-8.2-15.9-3.9-29.5-13.5-38.5-26.5C6.8 151.1 6 143.2 6 135c0-25.4 7.3-49 20-69 10.5-7 23-11 36.5-11 36.5 0 66.1 29.6 66.1 66.1 0 31.1-21.4 57.1-50.3 64.2 22.2 3.5 41.9 14.3 56.7 29.9 14.8-15.6 34.5-26.4 56.7-29.9-28.9-7.1-50.3-33.1-50.3-64.2 0-36.5 29.6-66.1 66.1-66.1 13.5 0 26 4 36.5 11 12.7 20 20 43.6 20 69 0 8.1-.8 16.1-2.2 23.8-9.1 13-22.7 22.6-38.5 26.5z" fill-rule="evenodd"/></symbol><symbol viewBox="0 0 270 270" id="i--gift"><title>Slice 1</title><g fill-rule="evenodd"><path d="M135 .3C60.6.3.3 60.6.3 135c0 74.4 60.3 134.7 134.7 134.7 74.4 0 134.7-60.3 134.7-134.7C269.7 60.6 209.4.3 135 .3zM124.1 198H66c-5.5 0-10-4.5-10-10v-62h68.1v72zm0-90H56v-6c0-5.5 4.5-10 10-10h58.1v16zm85.9 80c0 5.5-4.5 10-10 10h-57.9v-72H210v62zm0-80h-67.9V92H200c5.5 0 10 4.5 10 10v6z" id="gift-Shape"/><path d="M162 139.3c.6-1.9 1.4-3.3 2.5-4.3s2.3-1.4 3.9-1.4c1.7 0 3.1.5 4.2 1.6s1.7 2.4 1.7 4c0 1-.3 2.3-1 3.7-.7 1.4-1.6 3-2.9 4.6l-.9 1.2c-4.3 5.6-6.8 9.8-7.5 12.5-.7-2.8-3.2-7-7.5-12.6-.4-.5-.7-.9-.9-1.1-1.3-1.7-2.2-3.2-2.9-4.6-.7-1.4-1-2.7-1-3.8 0-1.6.6-2.9 1.7-4 1.2-1.1 2.6-1.6 4.2-1.6 1.5 0 2.8.5 3.9 1.4 1.1 1 1.9 2.5 2.5 4.4z"/></g></symbol><symbol viewBox="0 0 270 270" id="i--persmax"><title>Slice 1</title><g fill-rule="evenodd"><path d="M134.7.1C60.4.1.2 60.3.2 134.6s60.2 134.5 134.5 134.5 134.5-60.2 134.5-134.5S209 .1 134.7.1zm81.1 234c-22.1 18.1-50.4 28.9-81.1 28.9-30.8 0-59-10.8-81.1-28.9-1.3-1-2.5-2.1-3.8-3.2 15-24.2 40-41.5 69.2-46.1-28.9-7.1-50.3-33.1-50.3-64.1 0-36.4 29.6-66 66-66 36.5 0 66 29.6 66 66 0 31-21.4 57.1-50.3 64.1 29.2 4.6 54.2 21.9 69.2 46.1-1.2 1.1-2.5 2.2-3.8 3.2z" id="persmax-Shape"/><path d="M164.1 151l-25.5-28h-6.8l-25.5 28h7.5l21.4-23.6 21.4 23.6m-21.4-56.6l21.4 23.6h7.5l-25.5-29h-6.8l-25.5 29h7.5"/></g></symbol><symbol viewBox="0 0 270 270" id="i--persplus"><title>Slice 1</title><g fill-rule="evenodd"><path d="M135.1.1C60.6.1.2 60.5.2 135s60.4 134.9 134.9 134.9S270 209.5 270 135C270.1 60.5 209.7.1 135.1.1zm81.4 234.8c-22.2 18.1-50.5 29-81.4 29-30.9 0-59.2-10.9-81.4-29-1.3-1-2.5-2.1-3.8-3.2 15-24.2 40.1-41.6 69.4-46.3-29-7.1-50.4-33.2-50.4-64.3 0-36.6 29.7-66.2 66.2-66.2 36.6 0 66.2 29.6 66.2 66.2 0 31.1-21.5 57.2-50.4 64.3 29.3 4.7 54.3 22 69.4 46.2-1.2 1.1-2.5 2.2-3.8 3.3z" id="persplus-Shape"/><path d="M163 119h-24V94h-7v25h-24v8h24v24h7v-24h24"/></g></symbol><symbol viewBox="0 0 270 270" id="i--register"><title>Slice 1</title><g fill-rule="evenodd"><path d="M135 .3C60.6.3.3 60.6.3 135c0 74.4 60.3 134.7 134.7 134.7 74.4 0 134.7-60.3 134.7-134.7C269.7 60.6 209.4.3 135 .3zm84.5 134.2l-94.8 94.8c-3.9 3.9-10.3 3.9-14.1 0l-60.8-60.8c-3.9-3.9-3.9-10.3 0-14.1l94.8-94.8c3.9-3.9 10.3-3.9 14.1 0l60.8 60.8c3.9 3.8 3.9 10.2 0 14.1z" id="register-Shape"/><path d="M193.2 109.5c-11.5 12.8-22.2 26-32.2 39.7-10 13.7-19.2 27.7-27.6 42.1-.6 1.1-1.4 2.5-2.3 4.4-2.9 5.8-7 8.6-12.3 8.6-2.3 0-4.1-.3-5.6-1s-2.8-1.8-4-3.5c-1-1.4-2-3.3-2.9-5.5-.9-2.3-1.9-5.6-3.1-10.1-.1-.3-.2-.6-.3-1-1.4-4.9-2.1-8-2.1-9.2 0-2.5 1.5-4.8 4.4-6.9 2.9-2.1 5.9-3.2 8.7-3.2.9 0 1.7.3 2.3.8.6.6 1.2 1.7 2 3.5.4 1.1 1 2.6 1.7 4.5 1.5 4.2 2.8 6.4 3.8 6.4.9 0 4.4-4.8 10.5-14.5 5.8-9.2 10.9-17 15.1-23.3 5.9-8.8 10.4-15.2 13.4-19.1 3.1-3.9 5.9-6.9 8.3-8.9 2.2-1.8 5-3.2 8.4-4.2 3.4-1 7.7-1.7 12.9-2.1l.9 2.5z"/></g></symbol><symbol viewBox="0 0 270 270" id="i--storelocator"><title>Slice 1</title><path d="M135.7 41.9c-5.9 0-10.7 4.8-10.7 10.7 0 5.9 4.8 10.7 10.7 10.7 5.9 0 10.7-4.8 10.7-10.7 0-5.9-4.8-10.7-10.7-10.7zM134.9.3C60.5.3.2 60.6.2 135c0 74.4 60.3 134.7 134.7 134.7 74.4 0 134.7-60.3 134.7-134.7C269.6 60.6 209.3.3 134.9.3zM94.2 53.9c0-22.5 18.3-40.8 40.8-40.8 22.5 0 40.8 18.3 40.8 40.8 0 22.6-40.8 80.9-40.8 80.9S94.2 76.4 94.2 53.9z" fill-rule="evenodd"/></symbol></svg>