<svg width="270" height="270" viewBox="0 0 270 270" xmlns="http://www.w3.org/2000/svg"><title>Slice 1</title><path d="M135 .3C60.6.3.3 60.6.3 135c0 74.4 60.3 134.7 134.7 134.7 74.4 0 134.7-60.3 134.7-134.7C269.7 60.6 209.4.3 135 .3zm88.3 185c9.4 1.5 18.4 4.3 26.7 8.2-21.3 41.8-64.8 70.5-115 70.5s-93.7-28.6-115-70.5c8.3-3.9 17.3-6.7 26.7-8.2-15.9-3.9-29.5-13.5-38.5-26.5C6.8 151.1 6 143.2 6 135c0-25.4 7.3-49 20-69 10.5-7 23-11 36.5-11 36.5 0 66.1 29.6 66.1 66.1 0 31.1-21.4 57.1-50.3 64.2 22.2 3.5 41.9 14.3 56.7 29.9 14.8-15.6 34.5-26.4 56.7-29.9-28.9-7.1-50.3-33.1-50.3-64.2 0-36.5 29.6-66.1 66.1-66.1 13.5 0 26 4 36.5 11 12.7 20 20 43.6 20 69 0 8.1-.8 16.1-2.2 23.8-9.1 13-22.7 22.6-38.5 26.5z" fill="#595959" fill-rule="evenodd"/></svg>