<svg width="270" height="270" viewBox="0 0 270 270" xmlns="http://www.w3.org/2000/svg"><title>Slice 1</title><g fill="#9A9A9A" fill-rule="evenodd"><path d="M135 .3C60.6.3.3 60.6.3 135c0 74.4 60.3 134.7 134.7 134.7 74.4 0 134.7-60.3 134.7-134.7C269.7 60.6 209.4.3 135 .3zM124.1 198H66c-5.5 0-10-4.5-10-10v-62h68.1v72zm0-90H56v-6c0-5.5 4.5-10 10-10h58.1v16zm85.9 80c0 5.5-4.5 10-10 10h-57.9v-72H210v62zm0-80h-67.9V92H200c5.5 0 10 4.5 10 10v6z"/><path d="M162 139.3c.6-1.9 1.4-3.3 2.5-4.3s2.3-1.4 3.9-1.4c1.7 0 3.1.5 4.2 1.6s1.7 2.4 1.7 4c0 1-.3 2.3-1 3.7-.7 1.4-1.6 3-2.9 4.6l-.9 1.2c-4.3 5.6-6.8 9.8-7.5 12.5-.7-2.8-3.2-7-7.5-12.6-.4-.5-.7-.9-.9-1.1-1.3-1.7-2.2-3.2-2.9-4.6-.7-1.4-1-2.7-1-3.8 0-1.6.6-2.9 1.7-4 1.2-1.1 2.6-1.6 4.2-1.6 1.5 0 2.8.5 3.9 1.4 1.1 1 1.9 2.5 2.5 4.4z"/></g></svg>