<svg width="270" height="270" viewBox="0 0 270 270" xmlns="http://www.w3.org/2000/svg"><title>Slice 1</title><g fill="#595959" fill-rule="evenodd"><path d="M134.7.1C60.4.1.2 60.3.2 134.6s60.2 134.5 134.5 134.5 134.5-60.2 134.5-134.5S209 .1 134.7.1zm81.1 234c-22.1 18.1-50.4 28.9-81.1 28.9-30.8 0-59-10.8-81.1-28.9-1.3-1-2.5-2.1-3.8-3.2 15-24.2 40-41.5 69.2-46.1-28.9-7.1-50.3-33.1-50.3-64.1 0-36.4 29.6-66 66-66 36.5 0 66 29.6 66 66 0 31-21.4 57.1-50.3 64.1 29.2 4.6 54.2 21.9 69.2 46.1-1.2 1.1-2.5 2.2-3.8 3.2z"/><path d="M164.1 151l-25.5-28h-6.8l-25.5 28h7.5l21.4-23.6 21.4 23.6m-21.4-56.6l21.4 23.6h7.5l-25.5-29h-6.8l-25.5 29h7.5"/></g></svg>