<svg width="270" height="270" viewBox="0 0 270 270" xmlns="http://www.w3.org/2000/svg"><title>Slice 1</title><g fill="#595959" fill-rule="evenodd"><path d="M135 .3C60.6.3.3 60.6.3 135c0 74.4 60.3 134.7 134.7 134.7 74.4 0 134.7-60.3 134.7-134.7C269.7 60.6 209.4.3 135 .3zm84.5 134.2l-94.8 94.8c-3.9 3.9-10.3 3.9-14.1 0l-60.8-60.8c-3.9-3.9-3.9-10.3 0-14.1l94.8-94.8c3.9-3.9 10.3-3.9 14.1 0l60.8 60.8c3.9 3.8 3.9 10.2 0 14.1z"/><path d="M193.2 109.5c-11.5 12.8-22.2 26-32.2 39.7-10 13.7-19.2 27.7-27.6 42.1-.6 1.1-1.4 2.5-2.3 4.4-2.9 5.8-7 8.6-12.3 8.6-2.3 0-4.1-.3-5.6-1s-2.8-1.8-4-3.5c-1-1.4-2-3.3-2.9-5.5-.9-2.3-1.9-5.6-3.1-10.1-.1-.3-.2-.6-.3-1-1.4-4.9-2.1-8-2.1-9.2 0-2.5 1.5-4.8 4.4-6.9 2.9-2.1 5.9-3.2 8.7-3.2.9 0 1.7.3 2.3.8.6.6 1.2 1.7 2 3.5.4 1.1 1 2.6 1.7 4.5 1.5 4.2 2.8 6.4 3.8 6.4.9 0 4.4-4.8 10.5-14.5 5.8-9.2 10.9-17 15.1-23.3 5.9-8.8 10.4-15.2 13.4-19.1 3.1-3.9 5.9-6.9 8.3-8.9 2.2-1.8 5-3.2 8.4-4.2 3.4-1 7.7-1.7 12.9-2.1l.9 2.5z"/></g></svg>