<svg width="270" height="270" viewBox="0 0 270 270" xmlns="http://www.w3.org/2000/svg"><title>Slice 1</title><path d="M135.7 41.9c-5.9 0-10.7 4.8-10.7 10.7 0 5.9 4.8 10.7 10.7 10.7 5.9 0 10.7-4.8 10.7-10.7 0-5.9-4.8-10.7-10.7-10.7zM134.9.3C60.5.3.2 60.6.2 135c0 74.4 60.3 134.7 134.7 134.7 74.4 0 134.7-60.3 134.7-134.7C269.6 60.6 209.3.3 134.9.3zM94.2 53.9c0-22.5 18.3-40.8 40.8-40.8 22.5 0 40.8 18.3 40.8 40.8 0 22.6-40.8 80.9-40.8 80.9S94.2 76.4 94.2 53.9z" fill="#767676" fill-rule="evenodd"/></svg>